<svg width="26" height="19" viewBox="0 0 26 19" fill="none" xmlns="http://www.w3.org/2000/svg">
<path d="M9.69449 0.458374H22.8333C23.5185 0.458374 24.1755 0.730546 24.66 1.21501C25.1445 1.69948 25.4167 2.35657 25.4167 3.04171V15.9584C25.4167 16.6435 25.1445 17.3006 24.66 17.7851C24.1755 18.2695 23.5185 18.5417 22.8333 18.5417H9.69449C9.0094 18.5416 8.35243 18.2693 7.86807 17.7848L0.49653 10.4133C0.254379 10.171 0.118347 9.84255 0.118347 9.50004C0.118347 9.15754 0.254379 8.82906 0.49653 8.58683L7.86807 1.21529C8.35243 0.730788 9.0094 0.45852 9.69449 0.458374V0.458374ZM9.69449 15.9584H22.8333V3.04171H9.69449L3.23615 9.50004L9.69449 15.9584ZM18.2014 9.50004L20.0278 11.3265C20.2631 11.5701 20.3933 11.8963 20.3904 12.235C20.3874 12.5737 20.2516 12.8977 20.0121 13.1371C19.7726 13.3766 19.4486 13.5125 19.11 13.5154C18.7713 13.5184 18.445 13.3882 18.2014 13.1529L16.375 11.3265L14.5486 13.1529C14.4294 13.2762 14.2869 13.3746 14.1293 13.4423C13.9717 13.51 13.8022 13.5457 13.6307 13.5472C13.4592 13.5486 13.2891 13.516 13.1304 13.451C12.9716 13.3861 12.8274 13.2902 12.7061 13.1689C12.5849 13.0476 12.489 12.9034 12.424 12.7447C12.3591 12.5859 12.3264 12.4158 12.3279 12.2443C12.3294 12.0728 12.365 11.9033 12.4327 11.7457C12.5004 11.5881 12.5988 11.4456 12.7222 11.3265L14.5486 9.50004L12.7222 7.67363C12.5988 7.55447 12.5004 7.41194 12.4327 7.25436C12.365 7.09677 12.3294 6.92728 12.3279 6.75577C12.3264 6.58426 12.3591 6.41418 12.424 6.25543C12.489 6.09669 12.5849 5.95248 12.7061 5.8312C12.8274 5.70992 12.9716 5.61401 13.1304 5.54906C13.2891 5.48412 13.4592 5.45144 13.6307 5.45293C13.8022 5.45442 13.9717 5.49005 14.1293 5.55774C14.2869 5.62544 14.4294 5.72384 14.5486 5.84721L16.375 7.67363L18.2014 5.84721C18.3206 5.72384 18.4631 5.62544 18.6207 5.55774C18.7783 5.49005 18.9478 5.45442 19.1193 5.45293C19.2908 5.45144 19.4609 5.48412 19.6196 5.54906C19.7783 5.61401 19.9226 5.70992 20.0438 5.8312C20.1651 5.95248 20.261 6.09669 20.326 6.25543C20.3909 6.41418 20.4236 6.58426 20.4221 6.75577C20.4206 6.92728 20.385 7.09677 20.3173 7.25436C20.2496 7.41194 20.1512 7.55447 20.0278 7.67363L18.2014 9.50004Z" fill="#15BB70"/>
</svg>
